<svg width="17" height="17" viewBox="0 0 17 17" fill="none" xmlns="http://www.w3.org/2000/svg">
  <path
    d="M8.49511 17C6.82585 17.0013 5.1933 16.5101 3.80191 15.5879L1.37832 16.3705H1.25072C1.13576 16.3702 1.02562 16.3243 0.944475 16.2429C0.888437 16.1875 0.849262 16.1173 0.831495 16.0405C0.813728 15.9637 0.818097 15.8835 0.844095 15.809L1.60971 13.4773C0.492166 11.9303 -0.0722249 10.0522 0.0074062 8.14534C0.0870373 6.23853 0.806056 4.414 2.0487 2.96551C3.29133 1.51703 4.98528 0.528874 6.8578 0.160157C8.73031 -0.208561 10.6724 0.0636133 12.3715 0.932857C14.0705 1.8021 15.4275 3.21783 16.2241 4.9521C17.0207 6.68637 17.2105 8.63827 16.7629 10.4935C16.3153 12.3488 15.2564 13.9994 13.7566 15.1796C12.2569 16.3599 10.4036 17.0011 8.49511 17ZM8.50021 1.68776C6.92576 1.68762 5.39996 2.2334 4.18279 3.23211C2.96563 4.23081 2.1324 5.62066 1.82507 7.16483C1.51775 8.709 1.75535 10.312 2.49739 11.7006C3.23943 13.0892 4.43999 14.1776 5.89453 14.7803C7.34907 15.383 8.96758 15.4627 10.4743 15.0058C11.981 14.549 13.2827 13.5839 14.1576 12.2749C15.0325 10.9659 15.4265 9.39402 15.2724 7.82712C15.1183 6.26022 14.4257 4.79523 13.3125 3.68175C12.0359 2.4059 10.3051 1.68876 8.50021 1.68776ZM10.877 12.5246C10.1358 12.4532 9.41241 12.255 8.73841 11.9385C7.28026 11.2305 6.04441 10.1359 5.16555 8.77392C4.67742 8.152 4.38174 7.40096 4.31487 6.6132C4.31339 6.28227 4.38243 5.95483 4.51737 5.65267C4.65232 5.35051 4.85008 5.08056 5.09749 4.86079C5.29239 4.6957 5.53963 4.60525 5.79505 4.60559H6.07578C6.29185 4.60559 6.39053 4.60559 6.53514 4.96288C6.67976 5.32016 7.12296 6.40903 7.17315 6.51111C7.20653 6.57092 7.22405 6.63828 7.22405 6.70677C7.22405 6.77526 7.20653 6.84262 7.17315 6.90243C7.11264 7.02356 7.03531 7.13554 6.94347 7.23504C6.89838 7.28779 6.8499 7.33627 6.80396 7.38391C6.74234 7.44441 6.68385 7.50801 6.62872 7.57446C6.56086 7.62546 6.5145 7.69998 6.49877 7.7834C6.48303 7.86682 6.49904 7.9531 6.54365 8.02532C6.86007 8.56126 7.25264 9.04839 7.70908 9.47148C8.20568 9.92371 8.78281 10.2786 9.41044 10.5178C9.49443 10.5555 9.58769 10.5676 9.6785 10.5524C9.76932 10.5373 9.85363 10.4957 9.92085 10.4327C10.1227 10.197 10.3075 9.94709 10.4738 9.685C10.528 9.60202 10.6105 9.54159 10.706 9.51498C10.8015 9.48838 10.9034 9.4974 10.9927 9.54039C11.1833 9.59823 12.1683 10.0857 12.4218 10.2124L12.5307 10.2652C12.645 10.3042 12.7479 10.3708 12.8302 10.4591C12.8882 10.7998 12.8407 11.15 12.6941 11.4629C12.5527 11.7274 12.3527 11.9562 12.1095 12.1316C11.8662 12.307 11.5861 12.4246 11.2904 12.4752C11.1543 12.5082 11.0146 12.5248 10.8745 12.5246H10.877Z"
    fill="white"
  />
</svg>